<?xml version="1.0" encoding="utf-8"?>
<!-- Generator: Adobe Illustrator 27.8.1, SVG Export Plug-In . SVG Version: 6.00 Build 0)  -->
<svg version="1.1" id="Layer_1" xmlns="http://www.w3.org/2000/svg" xmlns:xlink="http://www.w3.org/1999/xlink" x="0px" y="0px"
	 viewBox="0 0 1278.1 695.2" style="enable-background:new 0 0 1278.1 695.2;" xml:space="preserve">
<style type="text/css">
	.st0{fill:#DF4418;}
</style>
<path class="st0" d="M551.8,647.4c10.3,26.5-3.9,47.9-32.3,47.9H317c-28.5,0-60.1-21.3-71.1-47.9L3.4,47.9C-7,21.3,7.3,0,35.7,0
	h202.4c28.5,0,60.1,21.3,71.1,47.9L551.8,647.4z M768.4,47.9C758.1,21.3,725.8,0,697.3,0H494.9c-28.5,0-43.3,21.3-32.3,47.9
	l242.5,599.5c10.3,26.5,42.7,47.9,71.1,47.9h202.4c28.5,0,43.3-21.3,32.3-47.9L768.4,47.9z M1124.8,0
	c-84.7,0-153.3,68.6-153.3,153.3s68.6,153.3,153.3,153.3c84.7,0,153.3-68.6,153.3-153.3S1209.5,0,1124.8,0z"/>
</svg>
